<svg xmlns="http://www.w3.org/2000/svg" xmlns:xlink="http://www.w3.org/1999/xlink" width="491" zoomAndPan="magnify" viewBox="0 0 368.25 283.499983" height="377" preserveAspectRatio="xMidYMid meet" version="1.0"><defs><clipPath id="f9c063226e"><path d="M 103.566406 50.476562 L 264.488281 50.476562 L 264.488281 232.355469 L 103.566406 232.355469 Z M 103.566406 50.476562 " clip-rule="nonzero"/></clipPath><clipPath id="a900e621a1"><path d="M 65.0625 22.667969 L 302.332031 22.667969 L 302.332031 259.9375 L 65.0625 259.9375 Z M 65.0625 22.667969 " clip-rule="nonzero"/></clipPath></defs><g clip-path="url(#f9c063226e)"><path fill="#0e1d34" d="M 264.144531 57.792969 C 264.132812 57.691406 264.117188 57.585938 264.097656 57.453125 L 264.089844 57.402344 C 264.074219 57.273438 264.054688 57.144531 264.03125 57.023438 C 264.007812 56.90625 263.980469 56.792969 263.949219 56.683594 L 263.925781 56.585938 C 263.898438 56.476562 263.871094 56.371094 263.839844 56.257812 C 263.804688 56.148438 263.765625 56.042969 263.726562 55.933594 L 263.691406 55.832031 C 263.65625 55.726562 263.617188 55.625 263.574219 55.519531 C 263.53125 55.417969 263.484375 55.316406 263.4375 55.21875 L 263.398438 55.132812 C 263.347656 55.023438 263.292969 54.914062 263.238281 54.8125 C 263.1875 54.714844 263.132812 54.621094 263.074219 54.527344 L 263.023438 54.445312 C 262.964844 54.34375 262.902344 54.238281 262.835938 54.144531 C 262.769531 54.042969 262.695312 53.941406 262.625 53.847656 L 262.5625 53.765625 C 262.503906 53.679688 262.441406 53.597656 262.371094 53.511719 C 262.199219 53.304688 262.023438 53.109375 261.84375 52.929688 C 261.664062 52.75 261.46875 52.574219 261.257812 52.402344 C 261.175781 52.332031 261.089844 52.269531 261.007812 52.207031 L 260.933594 52.15625 C 260.835938 52.082031 260.738281 52.007812 260.628906 51.933594 C 260.53125 51.867188 260.429688 51.808594 260.328125 51.75 L 260.238281 51.695312 C 260.144531 51.636719 260.050781 51.582031 259.964844 51.535156 C 259.855469 51.476562 259.746094 51.425781 259.636719 51.375 L 259.550781 51.335938 C 259.453125 51.289062 259.355469 51.242188 259.257812 51.203125 C 259.148438 51.15625 259.035156 51.113281 258.925781 51.074219 L 258.84375 51.046875 C 258.734375 51.007812 258.625 50.96875 258.511719 50.933594 C 258.40625 50.902344 258.296875 50.875 258.191406 50.847656 L 258.089844 50.824219 C 257.976562 50.792969 257.867188 50.765625 257.753906 50.746094 C 257.625 50.71875 257.496094 50.699219 257.363281 50.679688 L 257.289062 50.671875 C 257.183594 50.652344 257.078125 50.636719 256.980469 50.628906 C 256.714844 50.601562 256.449219 50.589844 256.191406 50.589844 L 233.464844 50.589844 C 232.941406 50.589844 232.421875 50.640625 231.90625 50.742188 C 231.390625 50.84375 230.894531 50.996094 230.40625 51.199219 C 229.921875 51.398438 229.460938 51.644531 229.027344 51.9375 C 228.589844 52.226562 228.1875 52.558594 227.816406 52.929688 C 227.445312 53.300781 227.113281 53.703125 226.820312 54.140625 C 226.53125 54.578125 226.285156 55.039062 226.082031 55.523438 C 225.882812 56.007812 225.730469 56.507812 225.628906 57.019531 C 225.527344 57.535156 225.476562 58.054688 225.476562 58.578125 C 225.476562 59.105469 225.527344 59.625 225.628906 60.136719 C 225.730469 60.652344 225.882812 61.152344 226.082031 61.636719 C 226.285156 62.121094 226.53125 62.582031 226.820312 63.019531 C 227.113281 63.453125 227.445312 63.859375 227.816406 64.230469 C 228.1875 64.601562 228.589844 64.933594 229.027344 65.222656 C 229.460938 65.515625 229.921875 65.761719 230.40625 65.960938 C 230.894531 66.164062 231.390625 66.3125 231.90625 66.417969 C 232.421875 66.519531 232.941406 66.570312 233.464844 66.570312 L 236.902344 66.570312 L 224.820312 78.652344 C 224.132812 78.171875 223.4375 77.710938 222.726562 77.269531 C 222.015625 76.824219 221.292969 76.402344 220.558594 76 C 219.824219 75.597656 219.078125 75.214844 218.324219 74.851562 C 217.570312 74.488281 216.808594 74.144531 216.035156 73.824219 C 215.261719 73.5 214.480469 73.199219 213.691406 72.921875 C 212.902344 72.640625 212.105469 72.382812 211.300781 72.148438 C 210.496094 71.910156 209.6875 71.695312 208.875 71.503906 C 208.058594 71.3125 207.238281 71.140625 206.414062 70.992188 C 205.589844 70.84375 204.761719 70.71875 203.933594 70.613281 C 203.101562 70.511719 202.269531 70.429688 201.433594 70.371094 C 200.597656 70.3125 199.761719 70.277344 198.925781 70.265625 C 198.085938 70.25 197.25 70.261719 196.414062 70.292969 C 195.574219 70.324219 194.742188 70.378906 193.90625 70.457031 C 193.074219 70.535156 192.242188 70.636719 191.414062 70.757812 C 190.585938 70.878906 189.761719 71.023438 188.941406 71.191406 C 188.121094 71.359375 187.304688 71.546875 186.492188 71.757812 C 185.683594 71.972656 184.878906 72.203125 184.082031 72.457031 C 183.285156 72.714844 182.492188 72.988281 181.710938 73.285156 C 180.929688 73.585938 180.15625 73.902344 179.390625 74.242188 C 178.625 74.582031 177.867188 74.941406 177.121094 75.320312 C 176.375 75.703125 175.640625 76.101562 174.914062 76.523438 C 174.191406 76.941406 173.480469 77.382812 172.777344 77.839844 C 172.078125 78.300781 171.390625 78.777344 170.714844 79.273438 C 170.039062 79.769531 169.378906 80.28125 168.734375 80.8125 C 168.085938 81.34375 167.453125 81.894531 166.835938 82.460938 C 166.21875 83.027344 165.617188 83.609375 165.03125 84.207031 C 164.445312 84.804688 163.878906 85.417969 163.324219 86.046875 C 162.773438 86.675781 162.238281 87.320312 161.71875 87.980469 C 161.203125 88.636719 160.703125 89.308594 160.222656 89.996094 C 159.738281 90.679688 159.277344 91.378906 158.832031 92.085938 C 158.390625 92.796875 157.964844 93.519531 157.5625 94.253906 C 157.15625 94.984375 156.773438 95.730469 156.410156 96.484375 C 154.0625 96.160156 151.703125 96.015625 149.335938 96.050781 C 124.25 96.410156 103.761719 117.117188 103.671875 142.214844 C 103.667969 143.566406 103.71875 144.917969 103.832031 146.269531 C 103.945312 147.617188 104.117188 148.960938 104.347656 150.292969 C 104.578125 151.628906 104.867188 152.949219 105.214844 154.257812 C 105.5625 155.566406 105.964844 156.859375 106.421875 158.132812 C 106.882812 159.40625 107.398438 160.65625 107.96875 161.882812 C 108.535156 163.113281 109.160156 164.3125 109.832031 165.488281 C 110.507812 166.660156 111.230469 167.804688 112.007812 168.914062 C 112.78125 170.023438 113.605469 171.097656 114.472656 172.136719 C 115.339844 173.175781 116.253906 174.171875 117.210938 175.132812 C 118.167969 176.089844 119.164062 177.003906 120.199219 177.875 C 121.238281 178.746094 122.308594 179.570312 123.417969 180.347656 C 124.527344 181.125 125.667969 181.851562 126.839844 182.527344 C 128.011719 183.203125 129.214844 183.828125 130.441406 184.398438 C 131.667969 184.972656 132.917969 185.488281 134.191406 185.949219 C 135.460938 186.414062 136.753906 186.820312 138.0625 187.167969 C 139.371094 187.515625 140.691406 187.808594 142.023438 188.039062 L 142.023438 199.382812 L 132.96875 199.382812 C 132.445312 199.382812 131.925781 199.433594 131.410156 199.535156 C 130.894531 199.636719 130.394531 199.789062 129.910156 199.992188 C 129.425781 200.191406 128.964844 200.4375 128.53125 200.730469 C 128.09375 201.019531 127.691406 201.351562 127.320312 201.722656 C 126.949219 202.09375 126.617188 202.496094 126.324219 202.933594 C 126.035156 203.371094 125.789062 203.832031 125.585938 204.316406 C 125.386719 204.800781 125.234375 205.300781 125.132812 205.8125 C 125.03125 206.328125 124.976562 206.847656 124.976562 207.371094 C 124.976562 207.898438 125.03125 208.417969 125.132812 208.929688 C 125.234375 209.445312 125.386719 209.945312 125.585938 210.429688 C 125.789062 210.914062 126.035156 211.375 126.324219 211.8125 C 126.617188 212.246094 126.949219 212.652344 127.320312 213.023438 C 127.691406 213.394531 128.09375 213.726562 128.53125 214.015625 C 128.964844 214.308594 129.425781 214.554688 129.910156 214.753906 C 130.394531 214.957031 130.894531 215.105469 131.410156 215.210938 C 131.925781 215.3125 132.445312 215.363281 132.96875 215.363281 L 142.023438 215.363281 L 142.023438 224.417969 C 142.023438 224.941406 142.074219 225.460938 142.179688 225.976562 C 142.28125 226.492188 142.433594 226.988281 142.632812 227.472656 C 142.835938 227.957031 143.082031 228.417969 143.371094 228.855469 C 143.664062 229.289062 143.996094 229.695312 144.367188 230.0625 C 144.738281 230.433594 145.140625 230.765625 145.578125 231.058594 C 146.011719 231.347656 146.472656 231.59375 146.957031 231.796875 C 147.441406 231.996094 147.941406 232.148438 148.457031 232.25 C 148.96875 232.351562 149.488281 232.402344 150.015625 232.402344 C 150.539062 232.402344 151.058594 232.351562 151.570312 232.25 C 152.085938 232.148438 152.585938 231.996094 153.070312 231.796875 C 153.554688 231.59375 154.015625 231.347656 154.453125 231.058594 C 154.886719 230.765625 155.289062 230.433594 155.660156 230.0625 C 156.03125 229.695312 156.363281 229.289062 156.65625 228.855469 C 156.945312 228.417969 157.191406 227.957031 157.394531 227.472656 C 157.59375 226.988281 157.746094 226.492188 157.847656 225.976562 C 157.953125 225.460938 158.003906 224.941406 158.003906 224.417969 L 158.003906 215.363281 L 167.058594 215.363281 C 167.585938 215.363281 168.105469 215.3125 168.617188 215.210938 C 169.132812 215.105469 169.632812 214.957031 170.117188 214.753906 C 170.601562 214.554688 171.0625 214.308594 171.5 214.015625 C 171.933594 213.726562 172.339844 213.394531 172.710938 213.023438 C 173.082031 212.652344 173.410156 212.246094 173.703125 211.8125 C 173.996094 211.375 174.242188 210.914062 174.441406 210.429688 C 174.640625 209.945312 174.792969 209.445312 174.894531 208.929688 C 175 208.417969 175.050781 207.898438 175.050781 207.371094 C 175.050781 206.847656 175 206.328125 174.894531 205.8125 C 174.792969 205.300781 174.640625 204.800781 174.441406 204.316406 C 174.242188 203.832031 173.996094 203.371094 173.703125 202.933594 C 173.410156 202.496094 173.082031 202.09375 172.710938 201.722656 C 172.339844 201.351562 171.933594 201.019531 171.5 200.730469 C 171.0625 200.4375 170.601562 200.191406 170.117188 199.992188 C 169.632812 199.789062 169.132812 199.636719 168.617188 199.535156 C 168.105469 199.433594 167.585938 199.382812 167.058594 199.382812 L 158.003906 199.382812 L 158.003906 188.039062 C 159.8125 187.722656 161.59375 187.300781 163.351562 186.773438 C 165.109375 186.246094 166.828125 185.617188 168.507812 184.882812 C 170.191406 184.152344 171.824219 183.320312 173.410156 182.394531 C 174.992188 181.46875 176.515625 180.453125 177.976562 179.34375 C 179.441406 178.238281 180.832031 177.046875 182.15625 175.777344 C 183.476562 174.503906 184.71875 173.15625 185.878906 171.734375 C 187.042969 170.316406 188.113281 168.832031 189.101562 167.285156 C 190.085938 165.738281 190.976562 164.136719 191.769531 162.484375 C 193.996094 162.792969 196.230469 162.941406 198.476562 162.925781 C 200.722656 162.914062 202.953125 162.738281 205.175781 162.398438 C 207.394531 162.058594 209.578125 161.5625 211.726562 160.90625 C 213.875 160.25 215.960938 159.441406 217.992188 158.484375 C 220.023438 157.523438 221.972656 156.421875 223.84375 155.179688 C 225.714844 153.933594 227.484375 152.5625 229.15625 151.0625 C 230.824219 149.5625 232.378906 147.949219 233.816406 146.222656 C 235.25 144.496094 236.554688 142.675781 237.726562 140.757812 C 238.898438 138.84375 239.925781 136.851562 240.808594 134.785156 C 241.6875 132.722656 242.417969 130.605469 242.992188 128.433594 C 243.566406 126.261719 243.980469 124.0625 244.234375 121.828125 C 244.488281 119.597656 244.582031 117.359375 244.507812 115.117188 C 244.4375 112.871094 244.207031 110.644531 243.8125 108.433594 C 243.417969 106.222656 242.863281 104.050781 242.152344 101.921875 C 241.441406 99.789062 240.582031 97.722656 239.570312 95.71875 C 238.5625 93.710938 237.410156 91.789062 236.121094 89.953125 L 248.203125 77.871094 L 248.203125 81.308594 C 248.203125 81.832031 248.253906 82.351562 248.355469 82.867188 C 248.457031 83.382812 248.609375 83.882812 248.808594 84.367188 C 249.007812 84.851562 249.253906 85.316406 249.546875 85.75 C 249.835938 86.1875 250.167969 86.59375 250.539062 86.964844 C 250.910156 87.335938 251.3125 87.667969 251.75 87.960938 C 252.1875 88.25 252.648438 88.496094 253.132812 88.699219 C 253.617188 88.898438 254.117188 89.050781 254.632812 89.15625 C 255.148438 89.257812 255.667969 89.308594 256.191406 89.308594 C 256.71875 89.308594 257.238281 89.257812 257.753906 89.15625 C 258.269531 89.050781 258.769531 88.898438 259.253906 88.699219 C 259.738281 88.496094 260.199219 88.25 260.636719 87.960938 C 261.070312 87.667969 261.476562 87.335938 261.847656 86.964844 C 262.21875 86.59375 262.550781 86.1875 262.839844 85.75 C 263.132812 85.316406 263.378906 84.851562 263.578125 84.367188 C 263.777344 83.882812 263.929688 83.382812 264.03125 82.867188 C 264.132812 82.351562 264.183594 81.832031 264.183594 81.308594 L 264.183594 58.582031 C 264.183594 58.320312 264.167969 58.054688 264.144531 57.792969 Z M 165.417969 149.351562 C 168.660156 152.597656 172.304688 155.300781 176.351562 157.460938 C 175.914062 158.230469 175.441406 158.976562 174.9375 159.703125 C 174.433594 160.429688 173.894531 161.132812 173.332031 161.8125 C 172.765625 162.492188 172.167969 163.144531 171.546875 163.773438 C 170.921875 164.398438 170.273438 165 169.597656 165.570312 C 168.921875 166.140625 168.222656 166.679688 167.5 167.191406 C 166.777344 167.699219 166.035156 168.175781 165.269531 168.621094 C 164.503906 169.066406 163.722656 169.476562 162.921875 169.851562 C 162.121094 170.230469 161.304688 170.570312 160.476562 170.875 C 159.644531 171.179688 158.804688 171.449219 157.949219 171.679688 C 157.097656 171.910156 156.234375 172.105469 155.363281 172.261719 C 154.492188 172.417969 153.617188 172.535156 152.738281 172.613281 C 151.855469 172.691406 150.972656 172.734375 150.089844 172.738281 C 149.207031 172.738281 148.324219 172.703125 147.441406 172.628906 C 146.558594 172.554688 145.683594 172.441406 144.8125 172.289062 C 143.941406 172.136719 143.078125 171.949219 142.222656 171.722656 C 141.367188 171.496094 140.523438 171.230469 139.691406 170.929688 C 138.863281 170.628906 138.042969 170.292969 137.242188 169.921875 C 136.441406 169.550781 135.65625 169.144531 134.886719 168.703125 C 134.121094 168.261719 133.375 167.789062 132.648438 167.285156 C 131.925781 166.777344 131.222656 166.242188 130.542969 165.675781 C 129.863281 165.109375 129.210938 164.511719 128.585938 163.886719 C 127.957031 163.265625 127.359375 162.613281 126.789062 161.9375 C 126.222656 161.261719 125.683594 160.5625 125.171875 159.835938 C 124.664062 159.113281 124.1875 158.371094 123.746094 157.605469 C 123.300781 156.839844 122.890625 156.054688 122.515625 155.253906 C 122.140625 154.453125 121.800781 153.636719 121.5 152.808594 C 121.195312 151.976562 120.929688 151.136719 120.699219 150.28125 C 120.46875 149.425781 120.273438 148.566406 120.121094 147.695312 C 119.964844 146.824219 119.847656 145.949219 119.769531 145.066406 C 119.691406 144.1875 119.652344 143.304688 119.652344 142.417969 C 119.652344 141.535156 119.6875 140.652344 119.765625 139.769531 C 119.839844 138.890625 119.953125 138.011719 120.105469 137.140625 C 120.257812 136.269531 120.449219 135.40625 120.679688 134.554688 C 120.90625 133.699219 121.171875 132.855469 121.472656 132.023438 C 121.773438 131.191406 122.113281 130.375 122.484375 129.574219 C 122.859375 128.773438 123.265625 127.988281 123.707031 127.222656 C 124.148438 126.457031 124.621094 125.710938 125.128906 124.984375 C 125.636719 124.261719 126.171875 123.558594 126.742188 122.882812 C 127.308594 122.203125 127.90625 121.550781 128.53125 120.925781 C 129.15625 120.300781 129.808594 119.703125 130.484375 119.136719 C 131.164062 118.566406 131.863281 118.027344 132.585938 117.519531 C 133.3125 117.011719 134.054688 116.539062 134.824219 116.09375 C 135.589844 115.652344 136.371094 115.246094 137.171875 114.871094 C 137.976562 114.496094 138.789062 114.160156 139.621094 113.855469 C 140.453125 113.554688 141.296875 113.289062 142.148438 113.058594 C 143.003906 112.832031 143.867188 112.640625 144.738281 112.484375 C 145.609375 112.332031 146.484375 112.214844 147.367188 112.140625 C 148.246094 112.0625 149.128906 112.023438 150.015625 112.023438 C 150.695312 112.023438 151.378906 112.050781 152.058594 112.097656 C 151.917969 113.578125 151.847656 115.074219 151.847656 116.585938 C 151.835938 119.628906 152.128906 122.644531 152.71875 125.628906 C 153.308594 128.617188 154.183594 131.515625 155.351562 134.328125 C 156.515625 137.140625 157.945312 139.8125 159.640625 142.339844 C 161.335938 144.871094 163.261719 147.207031 165.417969 149.351562 Z M 155.019531 183.097656 C 154.695312 183.136719 154.390625 183.234375 154.101562 183.382812 C 153.816406 183.535156 153.5625 183.730469 153.347656 183.976562 C 153.132812 184.21875 152.964844 184.492188 152.851562 184.796875 C 152.734375 185.101562 152.675781 185.417969 152.675781 185.742188 L 152.675781 199.914062 C 152.675781 200.230469 152.707031 200.542969 152.769531 200.851562 C 152.832031 201.160156 152.921875 201.457031 153.042969 201.75 C 153.164062 202.039062 153.3125 202.316406 153.488281 202.578125 C 153.660156 202.839844 153.859375 203.082031 154.082031 203.304688 C 154.304688 203.527344 154.546875 203.726562 154.808594 203.898438 C 155.070312 204.074219 155.347656 204.222656 155.636719 204.34375 C 155.929688 204.464844 156.226562 204.554688 156.535156 204.617188 C 156.84375 204.679688 157.15625 204.707031 157.472656 204.710938 L 167.058594 204.710938 C 167.414062 204.710938 167.753906 204.777344 168.078125 204.910156 C 168.40625 205.046875 168.691406 205.238281 168.941406 205.488281 C 169.191406 205.738281 169.386719 206.027344 169.519531 206.351562 C 169.65625 206.679688 169.722656 207.019531 169.722656 207.371094 C 169.722656 207.726562 169.65625 208.066406 169.519531 208.390625 C 169.386719 208.71875 169.191406 209.007812 168.941406 209.257812 C 168.691406 209.503906 168.40625 209.699219 168.078125 209.832031 C 167.753906 209.96875 167.414062 210.035156 167.058594 210.035156 L 157.472656 210.035156 C 157.15625 210.035156 156.84375 210.066406 156.535156 210.128906 C 156.226562 210.191406 155.929688 210.28125 155.636719 210.402344 C 155.347656 210.523438 155.070312 210.671875 154.808594 210.84375 C 154.546875 211.019531 154.304688 211.21875 154.082031 211.441406 C 153.859375 211.664062 153.660156 211.90625 153.488281 212.167969 C 153.3125 212.429688 153.164062 212.707031 153.042969 212.996094 C 152.921875 213.285156 152.832031 213.585938 152.769531 213.894531 C 152.707031 214.203125 152.675781 214.515625 152.675781 214.828125 L 152.675781 224.417969 C 152.675781 224.769531 152.609375 225.109375 152.472656 225.4375 C 152.339844 225.761719 152.148438 226.050781 151.898438 226.300781 C 151.648438 226.550781 151.359375 226.742188 151.03125 226.878906 C 150.707031 227.015625 150.367188 227.082031 150.015625 227.082031 C 149.660156 227.082031 149.320312 227.015625 148.996094 226.878906 C 148.667969 226.742188 148.378906 226.550781 148.128906 226.300781 C 147.882812 226.050781 147.6875 225.761719 147.554688 225.4375 C 147.417969 225.109375 147.351562 224.769531 147.351562 224.417969 L 147.351562 214.828125 C 147.351562 214.515625 147.320312 214.203125 147.257812 213.894531 C 147.195312 213.585938 147.105469 213.285156 146.984375 212.996094 C 146.863281 212.707031 146.714844 212.429688 146.539062 212.167969 C 146.367188 211.90625 146.167969 211.664062 145.945312 211.441406 C 145.722656 211.21875 145.480469 211.019531 145.21875 210.84375 C 144.957031 210.671875 144.679688 210.523438 144.390625 210.402344 C 144.097656 210.28125 143.800781 210.191406 143.492188 210.128906 C 143.183594 210.066406 142.871094 210.035156 142.554688 210.035156 L 132.96875 210.035156 C 132.613281 210.035156 132.277344 209.96875 131.949219 209.832031 C 131.621094 209.699219 131.335938 209.503906 131.085938 209.257812 C 130.835938 209.007812 130.644531 208.71875 130.507812 208.390625 C 130.371094 208.066406 130.304688 207.726562 130.304688 207.371094 C 130.304688 207.019531 130.371094 206.679688 130.507812 206.351562 C 130.644531 206.027344 130.835938 205.738281 131.085938 205.488281 C 131.335938 205.238281 131.621094 205.046875 131.949219 204.910156 C 132.277344 204.777344 132.613281 204.710938 132.96875 204.710938 L 142.554688 204.710938 C 142.871094 204.707031 143.183594 204.679688 143.492188 204.617188 C 143.800781 204.554688 144.097656 204.464844 144.390625 204.34375 C 144.679688 204.222656 144.957031 204.074219 145.21875 203.898438 C 145.480469 203.726562 145.722656 203.527344 145.945312 203.304688 C 146.167969 203.082031 146.367188 202.839844 146.539062 202.578125 C 146.714844 202.316406 146.863281 202.039062 146.984375 201.75 C 147.105469 201.457031 147.195312 201.160156 147.257812 200.851562 C 147.320312 200.542969 147.351562 200.230469 147.351562 199.914062 L 147.351562 185.742188 C 147.351562 185.417969 147.292969 185.101562 147.175781 184.796875 C 147.0625 184.492188 146.898438 184.21875 146.679688 183.976562 C 146.464844 183.730469 146.214844 183.535156 145.925781 183.382812 C 145.636719 183.234375 145.332031 183.136719 145.007812 183.097656 C 143.777344 182.945312 142.550781 182.742188 141.339844 182.476562 C 140.125 182.214844 138.925781 181.898438 137.738281 181.527344 C 136.554688 181.15625 135.390625 180.730469 134.242188 180.253906 C 133.097656 179.777344 131.972656 179.25 130.875 178.671875 C 129.777344 178.089844 128.707031 177.464844 127.664062 176.785156 C 126.625 176.109375 125.613281 175.386719 124.640625 174.621094 C 123.664062 173.851562 122.722656 173.042969 121.820312 172.1875 C 120.917969 171.335938 120.058594 170.441406 119.238281 169.511719 C 118.414062 168.578125 117.636719 167.609375 116.90625 166.609375 C 116.171875 165.605469 115.484375 164.574219 114.847656 163.507812 C 114.207031 162.441406 113.617188 161.351562 113.078125 160.234375 C 112.539062 159.113281 112.050781 157.972656 111.613281 156.8125 C 111.175781 155.648438 110.792969 154.46875 110.464844 153.273438 C 110.136719 152.074219 109.859375 150.863281 109.640625 149.640625 C 109.421875 148.417969 109.257812 147.191406 109.152344 145.953125 C 109.042969 144.714844 108.992188 143.476562 109 142.234375 C 109.078125 120.023438 127.207031 101.691406 149.410156 101.375 C 151.050781 101.351562 152.683594 101.425781 154.316406 101.597656 C 153.730469 103.308594 153.253906 105.046875 152.875 106.8125 C 151.921875 106.738281 150.96875 106.699219 150.015625 106.699219 C 148.953125 106.699219 147.894531 106.746094 146.839844 106.839844 C 145.78125 106.933594 144.730469 107.074219 143.6875 107.261719 C 142.644531 107.449219 141.609375 107.683594 140.585938 107.964844 C 139.5625 108.242188 138.554688 108.570312 137.5625 108.9375 C 136.566406 109.308594 135.589844 109.722656 134.632812 110.179688 C 133.675781 110.636719 132.742188 111.136719 131.828125 111.675781 C 130.914062 112.214844 130.027344 112.796875 129.167969 113.414062 C 128.304688 114.035156 127.476562 114.691406 126.671875 115.386719 C 125.871094 116.078125 125.097656 116.804688 124.363281 117.570312 C 123.625 118.332031 122.921875 119.125 122.253906 119.949219 C 121.589844 120.773438 120.960938 121.628906 120.367188 122.507812 C 119.777344 123.390625 119.226562 124.292969 118.71875 125.226562 C 118.207031 126.15625 117.738281 127.105469 117.3125 128.078125 C 116.890625 129.050781 116.507812 130.039062 116.171875 131.042969 C 115.832031 132.050781 115.542969 133.066406 115.296875 134.101562 C 115.050781 135.132812 114.847656 136.171875 114.695312 137.222656 C 114.542969 138.273438 114.4375 139.324219 114.375 140.386719 C 114.316406 141.445312 114.304688 142.503906 114.339844 143.5625 C 114.375 144.625 114.457031 145.679688 114.585938 146.734375 C 114.714844 147.785156 114.890625 148.832031 115.113281 149.867188 C 115.335938 150.90625 115.601562 151.929688 115.917969 152.945312 C 116.230469 153.957031 116.589844 154.953125 116.992188 155.9375 C 117.394531 156.917969 117.839844 157.878906 118.328125 158.820312 C 118.816406 159.761719 119.347656 160.679688 119.917969 161.574219 C 120.488281 162.46875 121.097656 163.335938 121.742188 164.175781 C 122.390625 165.015625 123.074219 165.824219 123.792969 166.605469 C 124.515625 167.382812 125.269531 168.128906 126.054688 168.839844 C 126.839844 169.554688 127.65625 170.230469 128.503906 170.867188 C 129.351562 171.507812 130.222656 172.109375 131.125 172.667969 C 132.023438 173.230469 132.945312 173.75 133.894531 174.230469 C 134.839844 174.707031 135.804688 175.144531 136.789062 175.539062 C 137.777344 175.929688 138.777344 176.277344 139.792969 176.582031 C 140.808594 176.886719 141.835938 177.144531 142.875 177.355469 C 143.914062 177.566406 144.960938 177.734375 146.015625 177.851562 C 147.070312 177.96875 148.128906 178.042969 149.1875 178.066406 C 150.25 178.089844 151.308594 178.066406 152.367188 177.996094 C 153.425781 177.925781 154.480469 177.8125 155.527344 177.648438 C 156.574219 177.484375 157.613281 177.273438 158.640625 177.015625 C 159.671875 176.757812 160.6875 176.457031 161.691406 176.109375 C 162.691406 175.761719 163.675781 175.371094 164.644531 174.9375 C 165.613281 174.5 166.558594 174.023438 167.484375 173.503906 C 168.40625 172.984375 169.308594 172.425781 170.183594 171.828125 C 171.058594 171.226562 171.90625 170.589844 172.722656 169.914062 C 173.539062 169.238281 174.328125 168.53125 175.082031 167.785156 C 175.835938 167.039062 176.558594 166.261719 177.242188 165.453125 C 177.929688 164.644531 178.578125 163.804688 179.1875 162.9375 C 179.796875 162.070312 180.371094 161.175781 180.902344 160.257812 C 181.429688 159.339844 181.921875 158.402344 182.367188 157.4375 C 182.375 157.425781 182.378906 157.417969 182.386719 157.40625 C 182.390625 157.394531 182.394531 157.386719 182.398438 157.378906 C 182.855469 156.386719 183.269531 155.375 183.636719 154.347656 C 184.003906 153.320312 184.320312 152.273438 184.589844 151.214844 C 184.863281 150.15625 185.082031 149.089844 185.257812 148.011719 C 185.429688 146.933594 185.550781 145.847656 185.625 144.757812 C 185.695312 143.667969 185.71875 142.574219 185.691406 141.484375 C 185.664062 140.390625 185.585938 139.304688 185.457031 138.21875 C 185.332031 137.132812 185.152344 136.054688 184.925781 134.988281 C 184.699219 133.917969 184.425781 132.863281 184.101562 131.820312 C 183.777344 130.777344 183.40625 129.75 182.988281 128.742188 C 182.570312 127.730469 182.109375 126.742188 181.601562 125.777344 C 181.089844 124.808594 180.539062 123.867188 179.945312 122.953125 C 179.347656 122.035156 178.710938 121.148438 178.035156 120.292969 C 177.359375 119.433594 176.644531 118.609375 175.890625 117.816406 C 175.140625 117.027344 174.351562 116.269531 173.53125 115.550781 C 172.707031 114.832031 171.855469 114.152344 170.96875 113.507812 C 170.085938 112.867188 169.171875 112.269531 168.234375 111.710938 C 168.523438 109.878906 168.976562 108.089844 169.597656 106.34375 C 171.496094 107.375 173.300781 108.546875 175.011719 109.863281 C 176.722656 111.179688 178.320312 112.621094 179.804688 114.191406 C 181.289062 115.757812 182.640625 117.433594 183.859375 119.214844 C 185.078125 120.996094 186.152344 122.863281 187.078125 124.816406 C 188 126.765625 188.765625 128.777344 189.375 130.851562 C 189.980469 132.921875 190.421875 135.027344 190.695312 137.171875 C 190.972656 139.3125 191.074219 141.460938 191.011719 143.621094 C 190.945312 145.777344 190.710938 147.917969 190.308594 150.039062 C 189.90625 152.160156 189.339844 154.238281 188.609375 156.269531 C 187.878906 158.300781 186.992188 160.261719 185.953125 162.152344 C 184.910156 164.046875 183.726562 165.84375 182.402344 167.550781 C 181.078125 169.253906 179.628906 170.84375 178.054688 172.320312 C 176.476562 173.796875 174.796875 175.140625 173.007812 176.351562 C 171.21875 177.5625 169.347656 178.625 167.390625 179.539062 C 165.4375 180.453125 163.421875 181.210938 161.347656 181.808594 C 159.269531 182.402344 157.160156 182.835938 155.019531 183.097656 Z M 180.347656 141.152344 C 179.058594 140.214844 177.847656 139.183594 176.71875 138.054688 C 175.382812 136.722656 174.179688 135.277344 173.113281 133.71875 C 172.046875 132.160156 171.136719 130.515625 170.378906 128.789062 C 169.621094 127.058594 169.03125 125.273438 168.609375 123.433594 C 168.1875 121.59375 167.941406 119.730469 167.871094 117.84375 C 169.726562 119.1875 171.402344 120.722656 172.910156 122.449219 C 174.414062 124.175781 175.707031 126.046875 176.789062 128.066406 C 177.867188 130.085938 178.710938 132.199219 179.308594 134.40625 C 179.910156 136.617188 180.257812 138.867188 180.347656 141.152344 Z M 171.835938 101.503906 C 172.28125 100.722656 172.761719 99.960938 173.277344 99.222656 C 173.789062 98.484375 174.335938 97.773438 174.910156 97.082031 C 175.488281 96.390625 176.09375 95.730469 176.730469 95.09375 C 177.367188 94.457031 178.027344 93.851562 178.71875 93.273438 C 179.410156 92.699219 180.121094 92.152344 180.859375 91.636719 C 181.597656 91.125 182.359375 90.644531 183.136719 90.199219 C 183.917969 89.753906 184.71875 89.34375 185.535156 88.96875 C 186.351562 88.59375 187.183594 88.253906 188.03125 87.953125 C 188.878906 87.652344 189.738281 87.386719 190.609375 87.164062 C 191.480469 86.9375 192.359375 86.753906 193.246094 86.605469 C 194.132812 86.460938 195.023438 86.351562 195.921875 86.285156 C 196.816406 86.21875 197.714844 86.1875 198.613281 86.203125 C 199.515625 86.214844 200.410156 86.265625 201.304688 86.359375 C 202.199219 86.449219 203.089844 86.582031 203.972656 86.75 C 204.855469 86.921875 205.726562 87.132812 206.59375 87.378906 C 207.457031 87.628906 208.308594 87.914062 209.148438 88.238281 C 209.984375 88.5625 210.808594 88.925781 211.613281 89.320312 C 212.421875 89.71875 213.210938 90.152344 213.976562 90.617188 C 214.746094 91.085938 215.492188 91.585938 216.214844 92.117188 C 216.941406 92.652344 217.640625 93.214844 218.3125 93.8125 C 218.984375 94.40625 219.632812 95.03125 220.25 95.683594 C 220.867188 96.335938 221.457031 97.015625 222.015625 97.722656 C 222.574219 98.425781 223.097656 99.15625 223.59375 99.90625 C 224.085938 100.660156 224.542969 101.429688 224.96875 102.222656 C 225.394531 103.015625 225.78125 103.824219 226.136719 104.652344 C 226.488281 105.480469 226.804688 106.320312 227.082031 107.175781 C 227.359375 108.03125 227.597656 108.898438 227.800781 109.773438 C 228 110.648438 228.164062 111.535156 228.285156 112.425781 C 228.40625 113.316406 228.492188 114.210938 228.535156 115.109375 C 228.578125 116.007812 228.582031 116.90625 228.542969 117.804688 C 228.507812 118.703125 228.429688 119.597656 228.3125 120.488281 C 228.199219 121.378906 228.042969 122.265625 227.847656 123.140625 C 227.652344 124.019531 227.417969 124.886719 227.148438 125.746094 C 226.875 126.601562 226.566406 127.445312 226.21875 128.273438 C 225.875 129.105469 225.492188 129.917969 225.070312 130.714844 C 224.652344 131.507812 224.199219 132.285156 223.710938 133.039062 C 223.222656 133.792969 222.703125 134.527344 222.148438 135.234375 C 221.597656 135.945312 221.015625 136.628906 220.398438 137.285156 C 219.785156 137.941406 219.144531 138.570312 218.476562 139.171875 C 217.804688 139.773438 217.113281 140.34375 216.390625 140.878906 C 215.671875 141.417969 214.929688 141.925781 214.164062 142.398438 C 213.398438 142.871094 212.613281 143.308594 211.8125 143.710938 C 211.007812 144.113281 210.1875 144.480469 209.351562 144.808594 C 208.515625 145.140625 207.664062 145.433594 206.800781 145.6875 C 205.941406 145.941406 205.066406 146.15625 204.1875 146.335938 C 203.304688 146.511719 202.417969 146.648438 201.523438 146.75 C 200.628906 146.847656 199.734375 146.90625 198.832031 146.925781 C 197.933594 146.941406 197.035156 146.921875 196.140625 146.859375 C 196.28125 145.386719 196.355469 143.894531 196.355469 142.386719 C 196.351562 140.296875 196.207031 138.21875 195.921875 136.148438 C 195.640625 134.082031 195.21875 132.039062 194.65625 130.027344 C 194.097656 128.015625 193.40625 126.046875 192.582031 124.128906 C 191.757812 122.210938 190.808594 120.355469 189.734375 118.5625 C 188.660156 116.773438 187.46875 115.0625 186.164062 113.429688 C 184.859375 111.800781 183.453125 110.261719 181.941406 108.820312 C 180.429688 107.378906 178.828125 106.046875 177.132812 104.820312 C 175.441406 103.597656 173.675781 102.488281 171.835938 101.503906 Z M 258.855469 81.308594 C 258.855469 81.660156 258.789062 82 258.652344 82.328125 C 258.519531 82.652344 258.324219 82.941406 258.078125 83.191406 C 257.828125 83.441406 257.539062 83.632812 257.210938 83.769531 C 256.886719 83.902344 256.546875 83.96875 256.191406 83.96875 C 255.839844 83.96875 255.5 83.902344 255.175781 83.769531 C 254.847656 83.632812 254.558594 83.441406 254.308594 83.191406 C 254.058594 82.941406 253.867188 82.652344 253.734375 82.328125 C 253.597656 82 253.53125 81.660156 253.53125 81.308594 L 253.53125 71.441406 C 253.53125 70.902344 253.378906 70.40625 253.082031 69.960938 C 252.78125 69.511719 252.382812 69.183594 251.886719 68.980469 C 251.386719 68.773438 250.875 68.722656 250.347656 68.828125 C 249.820312 68.933594 249.363281 69.175781 248.984375 69.554688 L 230.726562 87.8125 C 230.5 88.042969 230.316406 88.304688 230.183594 88.601562 C 230.050781 88.898438 229.972656 89.207031 229.953125 89.535156 C 229.933594 89.859375 229.972656 90.175781 230.070312 90.488281 C 230.164062 90.796875 230.3125 91.082031 230.515625 91.335938 C 231.746094 92.914062 232.859375 94.574219 233.847656 96.316406 C 234.835938 98.054688 235.695312 99.859375 236.421875 101.726562 C 237.144531 103.59375 237.730469 105.503906 238.175781 107.453125 C 238.621094 109.40625 238.921875 111.382812 239.082031 113.378906 C 239.238281 115.375 239.246094 117.371094 239.109375 119.371094 C 238.976562 121.367188 238.695312 123.34375 238.269531 125.300781 C 237.84375 127.257812 237.277344 129.171875 236.570312 131.046875 C 235.863281 132.921875 235.023438 134.734375 234.054688 136.484375 C 233.082031 138.234375 231.988281 139.90625 230.769531 141.496094 C 229.554688 143.089844 228.230469 144.582031 226.792969 145.976562 C 225.359375 147.375 223.828125 148.660156 222.207031 149.832031 C 220.582031 151.003906 218.882812 152.050781 217.105469 152.976562 C 215.328125 153.898438 213.492188 154.6875 211.601562 155.34375 C 209.710938 156 207.777344 156.511719 205.8125 156.882812 C 203.84375 157.253906 201.859375 157.480469 199.859375 157.5625 C 197.859375 157.644531 195.863281 157.582031 193.871094 157.371094 C 194.457031 155.65625 194.9375 153.910156 195.320312 152.140625 C 196.257812 152.214844 197.195312 152.253906 198.132812 152.253906 C 200.480469 152.253906 202.804688 152.027344 205.105469 151.570312 C 207.410156 151.117188 209.644531 150.441406 211.8125 149.546875 C 213.984375 148.648438 216.042969 147.554688 217.996094 146.253906 C 219.953125 144.953125 221.761719 143.476562 223.425781 141.820312 C 224.296875 140.949219 225.117188 140.039062 225.894531 139.082031 C 226.671875 138.125 227.398438 137.132812 228.070312 136.101562 C 228.746094 135.070312 229.363281 134.007812 229.925781 132.914062 C 230.492188 131.816406 230.996094 130.699219 231.445312 129.550781 C 231.890625 128.402344 232.28125 127.234375 232.605469 126.046875 C 232.933594 124.859375 233.199219 123.660156 233.402344 122.445312 C 233.605469 121.230469 233.742188 120.007812 233.820312 118.78125 C 233.894531 117.550781 233.910156 116.320312 233.859375 115.089844 C 233.808594 113.859375 233.691406 112.636719 233.515625 111.417969 C 233.335938 110.199219 233.097656 108.992188 232.792969 107.796875 C 232.492188 106.605469 232.128906 105.429688 231.703125 104.273438 C 231.28125 103.117188 230.796875 101.988281 230.257812 100.878906 C 229.714844 99.773438 229.117188 98.699219 228.464844 97.65625 C 227.8125 96.609375 227.109375 95.601562 226.351562 94.628906 C 225.59375 93.660156 224.789062 92.730469 223.9375 91.839844 C 223.085938 90.953125 222.1875 90.109375 221.25 89.316406 C 220.308594 88.519531 219.328125 87.773438 218.3125 87.082031 C 217.296875 86.386719 216.246094 85.746094 215.160156 85.160156 C 214.078125 84.578125 212.96875 84.046875 211.828125 83.578125 C 210.691406 83.105469 209.53125 82.695312 208.351562 82.347656 C 207.171875 81.996094 205.976562 81.707031 204.765625 81.480469 C 203.554688 81.253906 202.335938 81.089844 201.109375 80.988281 C 199.882812 80.886719 198.652344 80.851562 197.421875 80.875 C 196.191406 80.902344 194.964844 80.992188 193.742188 81.148438 C 192.519531 81.300781 191.308594 81.515625 190.109375 81.792969 C 188.910156 82.074219 187.726562 82.414062 186.5625 82.8125 C 185.398438 83.214844 184.257812 83.675781 183.140625 84.195312 C 182.023438 84.714844 180.9375 85.289062 179.878906 85.921875 C 178.824219 86.550781 177.800781 87.234375 176.816406 87.972656 C 175.828125 88.710938 174.882812 89.496094 173.976562 90.332031 C 173.074219 91.167969 172.214844 92.046875 171.398438 92.96875 C 170.585938 93.894531 169.820312 94.859375 169.105469 95.863281 C 168.394531 96.863281 167.730469 97.902344 167.125 98.972656 C 166.519531 100.042969 165.96875 101.144531 165.476562 102.273438 C 164.980469 103.402344 164.546875 104.550781 164.175781 105.726562 C 163.800781 106.898438 163.488281 108.089844 163.238281 109.292969 C 162.984375 110.5 162.796875 111.714844 162.671875 112.941406 C 162.546875 114.164062 162.484375 115.394531 162.488281 116.625 C 162.488281 117.855469 162.554688 119.085938 162.683594 120.308594 C 162.8125 121.535156 163.003906 122.75 163.261719 123.953125 C 163.515625 125.160156 163.832031 126.347656 164.207031 127.519531 C 164.585938 128.691406 165.023438 129.839844 165.519531 130.96875 C 166.015625 132.09375 166.570312 133.191406 167.179688 134.261719 C 167.792969 135.332031 168.453125 136.367188 169.171875 137.367188 C 169.890625 138.367188 170.65625 139.328125 171.472656 140.25 C 172.289062 141.171875 173.152344 142.050781 174.0625 142.882812 C 174.96875 143.714844 175.917969 144.496094 176.90625 145.230469 C 177.894531 145.964844 178.917969 146.648438 179.976562 147.273438 C 179.679688 149.097656 179.222656 150.882812 178.597656 152.621094 C 176.984375 151.742188 175.4375 150.761719 173.957031 149.675781 C 172.472656 148.59375 171.070312 147.414062 169.75 146.140625 C 168.425781 144.867188 167.195312 143.511719 166.054688 142.070312 C 164.914062 140.632812 163.871094 139.125 162.933594 137.546875 C 161.996094 135.96875 161.167969 134.332031 160.449219 132.644531 C 159.730469 130.953125 159.125 129.222656 158.640625 127.453125 C 158.152344 125.683594 157.785156 123.886719 157.542969 122.070312 C 157.296875 120.25 157.171875 118.421875 157.171875 116.585938 C 157.171875 114.449219 157.335938 112.328125 157.664062 110.21875 C 157.667969 110.195312 157.675781 110.171875 157.675781 110.148438 C 157.679688 110.128906 157.679688 110.109375 157.683594 110.09375 C 157.824219 109.214844 157.992188 108.347656 158.191406 107.480469 C 158.386719 106.617188 158.613281 105.761719 158.863281 104.910156 C 159.117188 104.058594 159.398438 103.21875 159.703125 102.386719 C 160.011719 101.554688 160.34375 100.734375 160.707031 99.921875 C 161.066406 99.113281 161.453125 98.316406 161.863281 97.53125 C 162.277344 96.746094 162.714844 95.972656 163.175781 95.21875 C 163.636719 94.460938 164.125 93.71875 164.632812 92.992188 C 165.144531 92.269531 165.675781 91.558594 166.234375 90.871094 C 166.789062 90.179688 167.367188 89.507812 167.96875 88.851562 C 168.566406 88.199219 169.1875 87.566406 169.828125 86.953125 C 170.46875 86.339844 171.128906 85.75 171.808594 85.179688 C 172.488281 84.609375 173.183594 84.0625 173.898438 83.535156 C 174.613281 83.011719 175.34375 82.507812 176.089844 82.03125 C 176.839844 81.554688 177.601562 81.101562 178.378906 80.671875 C 179.152344 80.246094 179.941406 79.839844 180.746094 79.464844 C 181.546875 79.085938 182.363281 78.738281 183.1875 78.414062 C 184.011719 78.089844 184.847656 77.792969 185.691406 77.519531 C 186.539062 77.25 187.390625 77.007812 188.25 76.792969 C 189.109375 76.578125 189.976562 76.390625 190.851562 76.234375 C 191.722656 76.074219 192.597656 75.945312 193.480469 75.84375 C 194.359375 75.742188 195.246094 75.667969 196.128906 75.621094 C 197.015625 75.578125 197.902344 75.5625 198.789062 75.574219 C 199.675781 75.589844 200.5625 75.628906 201.445312 75.699219 C 202.328125 75.769531 203.210938 75.871094 204.085938 75.996094 C 204.964844 76.125 205.835938 76.28125 206.703125 76.464844 C 207.574219 76.648438 208.433594 76.859375 209.285156 77.101562 C 210.140625 77.339844 210.984375 77.605469 211.820312 77.902344 C 212.660156 78.195312 213.484375 78.519531 214.300781 78.867188 C 215.117188 79.214844 215.917969 79.589844 216.710938 79.988281 C 217.5 80.390625 218.28125 80.816406 219.042969 81.265625 C 219.808594 81.714844 220.554688 82.191406 221.289062 82.691406 C 222.019531 83.191406 222.738281 83.710938 223.4375 84.257812 C 223.691406 84.457031 223.976562 84.605469 224.285156 84.703125 C 224.597656 84.800781 224.914062 84.839844 225.238281 84.820312 C 225.5625 84.800781 225.875 84.722656 226.171875 84.589844 C 226.46875 84.457031 226.730469 84.273438 226.960938 84.042969 L 245.214844 65.789062 C 245.597656 65.410156 245.839844 64.953125 245.945312 64.425781 C 246.050781 63.898438 246 63.386719 245.792969 62.886719 C 245.589844 62.390625 245.261719 61.992188 244.8125 61.691406 C 244.363281 61.394531 243.871094 61.242188 243.332031 61.242188 L 233.464844 61.242188 C 233.113281 61.242188 232.773438 61.175781 232.445312 61.039062 C 232.121094 60.90625 231.832031 60.710938 231.582031 60.464844 C 231.332031 60.214844 231.140625 59.925781 231.003906 59.597656 C 230.871094 59.273438 230.800781 58.933594 230.800781 58.578125 C 230.800781 58.226562 230.871094 57.886719 231.003906 57.5625 C 231.140625 57.234375 231.332031 56.945312 231.582031 56.695312 C 231.832031 56.445312 232.121094 56.253906 232.445312 56.121094 C 232.773438 55.984375 233.113281 55.917969 233.464844 55.917969 L 256.191406 55.917969 C 256.277344 55.917969 256.363281 55.921875 256.46875 55.929688 L 256.445312 55.929688 L 256.574219 55.949219 L 257.171875 56.105469 L 257.898438 56.535156 C 257.964844 56.589844 258.023438 56.644531 258.078125 56.699219 C 258.128906 56.75 258.183594 56.808594 258.234375 56.871094 L 258.378906 57.066406 L 258.636719 57.53125 L 258.84375 58.34375 C 258.851562 58.425781 258.855469 58.503906 258.855469 58.582031 Z M 258.855469 81.308594 " fill-opacity="1" fill-rule="nonzero"/></g><path fill="#e1ebf4" d="M 300.476562 141.304688 C 300.476562 143.214844 300.429688 145.125 300.335938 147.03125 C 300.242188 148.941406 300.101562 150.847656 299.914062 152.75 C 299.726562 154.652344 299.492188 156.546875 299.214844 158.4375 C 298.933594 160.328125 298.605469 162.210938 298.234375 164.085938 C 297.859375 165.960938 297.441406 167.824219 296.976562 169.679688 C 296.511719 171.53125 296.003906 173.375 295.449219 175.203125 C 294.894531 177.03125 294.292969 178.84375 293.652344 180.644531 C 293.007812 182.445312 292.320312 184.226562 291.589844 185.992188 C 290.855469 187.757812 290.082031 189.503906 289.265625 191.234375 C 288.449219 192.960938 287.589844 194.667969 286.6875 196.351562 C 285.789062 198.039062 284.84375 199.699219 283.863281 201.339844 C 282.878906 202.980469 281.859375 204.59375 280.796875 206.183594 C 279.734375 207.769531 278.632812 209.332031 277.496094 210.867188 C 276.359375 212.402344 275.183594 213.910156 273.96875 215.386719 C 272.757812 216.863281 271.507812 218.3125 270.226562 219.726562 C 268.941406 221.144531 267.625 222.527344 266.273438 223.878906 C 264.921875 225.230469 263.539062 226.546875 262.121094 227.832031 C 260.707031 229.113281 259.257812 230.363281 257.78125 231.574219 C 256.304688 232.789062 254.796875 233.960938 253.261719 235.101562 C 251.726562 236.238281 250.167969 237.339844 248.578125 238.402344 C 246.988281 239.464844 245.375 240.484375 243.734375 241.46875 C 242.09375 242.449219 240.433594 243.394531 238.746094 244.292969 C 237.0625 245.195312 235.355469 246.054688 233.628906 246.871094 C 231.898438 247.6875 230.152344 248.460938 228.386719 249.195312 C 226.621094 249.925781 224.839844 250.613281 223.039062 251.257812 C 221.238281 251.898438 219.425781 252.5 217.597656 253.054688 C 215.769531 253.609375 213.925781 254.117188 212.074219 254.582031 C 210.21875 255.046875 208.355469 255.464844 206.480469 255.839844 C 204.605469 256.210938 202.722656 256.539062 200.832031 256.820312 C 198.941406 257.097656 197.046875 257.332031 195.144531 257.519531 C 193.242188 257.707031 191.335938 257.847656 189.429688 257.941406 C 187.519531 258.035156 185.609375 258.082031 183.699219 258.082031 C 181.785156 258.082031 179.875 258.035156 177.96875 257.941406 C 176.058594 257.847656 174.152344 257.707031 172.25 257.519531 C 170.347656 257.332031 168.453125 257.097656 166.5625 256.820312 C 164.671875 256.539062 162.789062 256.210938 160.914062 255.839844 C 159.039062 255.464844 157.175781 255.046875 155.324219 254.582031 C 153.46875 254.117188 151.628906 253.609375 149.796875 253.054688 C 147.96875 252.5 146.15625 251.898438 144.355469 251.257812 C 142.554688 250.613281 140.773438 249.925781 139.007812 249.195312 C 137.242188 248.460938 135.496094 247.6875 133.769531 246.871094 C 132.039062 246.054688 130.332031 245.195312 128.648438 244.292969 C 126.960938 243.394531 125.300781 242.449219 123.660156 241.46875 C 122.023438 240.484375 120.40625 239.464844 118.816406 238.402344 C 117.230469 237.339844 115.667969 236.238281 114.132812 235.101562 C 112.597656 233.960938 111.089844 232.789062 109.613281 231.574219 C 108.136719 230.363281 106.6875 229.113281 105.273438 227.832031 C 103.855469 226.546875 102.472656 225.230469 101.121094 223.878906 C 99.769531 222.527344 98.453125 221.144531 97.167969 219.726562 C 95.886719 218.3125 94.636719 216.863281 93.425781 215.386719 C 92.214844 213.910156 91.039062 212.402344 89.898438 210.867188 C 88.761719 209.332031 87.660156 207.769531 86.597656 206.183594 C 85.539062 204.59375 84.515625 202.980469 83.53125 201.339844 C 82.550781 199.699219 81.609375 198.039062 80.707031 196.351562 C 79.804688 194.667969 78.945312 192.960938 78.128906 191.234375 C 77.3125 189.503906 76.539062 187.757812 75.808594 185.992188 C 75.074219 184.226562 74.386719 182.445312 73.746094 180.644531 C 73.101562 178.84375 72.5 177.03125 71.945312 175.203125 C 71.390625 173.375 70.882812 171.53125 70.417969 169.679688 C 69.953125 167.824219 69.535156 165.960938 69.160156 164.085938 C 68.789062 162.210938 68.460938 160.328125 68.183594 158.4375 C 67.902344 156.546875 67.667969 154.652344 67.480469 152.75 C 67.292969 150.847656 67.152344 148.941406 67.058594 147.03125 C 66.964844 145.125 66.917969 143.214844 66.917969 141.304688 C 66.917969 139.390625 66.964844 137.480469 67.058594 135.574219 C 67.152344 133.664062 67.292969 131.757812 67.480469 129.855469 C 67.667969 127.953125 67.902344 126.058594 68.183594 124.167969 C 68.460938 122.277344 68.789062 120.394531 69.160156 118.519531 C 69.535156 116.644531 69.953125 114.78125 70.417969 112.929688 C 70.882812 111.074219 71.390625 109.234375 71.945312 107.402344 C 72.5 105.574219 73.101562 103.761719 73.746094 101.960938 C 74.386719 100.160156 75.074219 98.378906 75.808594 96.613281 C 76.539062 94.847656 77.3125 93.101562 78.128906 91.375 C 78.945312 89.644531 79.804688 87.9375 80.707031 86.253906 C 81.609375 84.566406 82.550781 82.90625 83.53125 81.265625 C 84.515625 79.628906 85.539062 78.011719 86.597656 76.421875 C 87.660156 74.835938 88.761719 73.273438 89.898438 71.738281 C 91.039062 70.203125 92.214844 68.695312 93.425781 67.21875 C 94.636719 65.742188 95.886719 64.292969 97.167969 62.878906 C 98.453125 61.460938 99.769531 60.078125 101.121094 58.726562 C 102.472656 57.375 103.855469 56.058594 105.273438 54.773438 C 106.6875 53.492188 108.136719 52.242188 109.613281 51.03125 C 111.089844 49.820312 112.597656 48.644531 114.132812 47.503906 C 115.667969 46.367188 117.230469 45.265625 118.816406 44.203125 C 120.40625 43.140625 122.023438 42.121094 123.660156 41.136719 C 125.300781 40.15625 126.960938 39.214844 128.648438 38.3125 C 130.332031 37.410156 132.039062 36.550781 133.769531 35.734375 C 135.496094 34.917969 137.242188 34.144531 139.007812 33.414062 C 140.773438 32.679688 142.554688 31.992188 144.355469 31.351562 C 146.15625 30.707031 147.96875 30.105469 149.796875 29.550781 C 151.628906 28.996094 153.46875 28.488281 155.324219 28.023438 C 157.175781 27.558594 159.039062 27.140625 160.914062 26.765625 C 162.789062 26.394531 164.671875 26.066406 166.5625 25.789062 C 168.453125 25.507812 170.347656 25.273438 172.25 25.085938 C 174.152344 24.898438 176.058594 24.757812 177.96875 24.664062 C 179.875 24.570312 181.785156 24.523438 183.699219 24.523438 C 185.609375 24.523438 187.519531 24.570312 189.429688 24.664062 C 191.335938 24.757812 193.242188 24.898438 195.144531 25.085938 C 197.046875 25.273438 198.941406 25.507812 200.832031 25.789062 C 202.722656 26.066406 204.605469 26.394531 206.480469 26.765625 C 208.355469 27.140625 210.21875 27.558594 212.074219 28.023438 C 213.925781 28.488281 215.769531 28.996094 217.597656 29.550781 C 219.425781 30.105469 221.238281 30.707031 223.039062 31.351562 C 224.839844 31.992188 226.621094 32.679688 228.386719 33.414062 C 230.152344 34.144531 231.898438 34.917969 233.628906 35.734375 C 235.355469 36.550781 237.0625 37.410156 238.746094 38.3125 C 240.433594 39.214844 242.09375 40.15625 243.734375 41.136719 C 245.375 42.121094 246.988281 43.140625 248.578125 44.203125 C 250.167969 45.265625 251.726562 46.367188 253.261719 47.503906 C 254.796875 48.644531 256.304688 49.820312 257.78125 51.03125 C 259.257812 52.242188 260.707031 53.492188 262.121094 54.773438 C 263.539062 56.058594 264.921875 57.375 266.273438 58.726562 C 267.625 60.078125 268.941406 61.460938 270.226562 62.878906 C 271.507812 64.292969 272.757812 65.742188 273.96875 67.21875 C 275.183594 68.695312 276.359375 70.203125 277.496094 71.738281 C 278.632812 73.273438 279.734375 74.835938 280.796875 76.421875 C 281.859375 78.011719 282.878906 79.628906 283.863281 81.265625 C 284.84375 82.90625 285.789062 84.566406 286.6875 86.253906 C 287.589844 87.9375 288.449219 89.644531 289.265625 91.375 C 290.082031 93.101562 290.855469 94.847656 291.589844 96.613281 C 292.320312 98.378906 293.007812 100.160156 293.652344 101.960938 C 294.292969 103.761719 294.894531 105.574219 295.449219 107.402344 C 296.003906 109.234375 296.511719 111.074219 296.976562 112.929688 C 297.441406 114.78125 297.859375 116.644531 298.234375 118.519531 C 298.605469 120.394531 298.933594 122.277344 299.214844 124.167969 C 299.492188 126.058594 299.726562 127.953125 299.914062 129.855469 C 300.101562 131.757812 300.242188 133.664062 300.335938 135.574219 C 300.429688 137.480469 300.476562 139.390625 300.476562 141.304688 Z M 300.476562 141.304688 " fill-opacity="1" fill-rule="nonzero"/><path fill="#81d9e3" d="M 153.855469 157.800781 C 164.605469 157.800781 174.429688 153.90625 181.84375 147.421875 L 123.269531 84.765625 C 115.667969 92.550781 110.847656 103.117188 110.847656 114.980469 C 110.847656 138.707031 130.128906 157.800781 153.855469 157.800781 Z M 153.855469 157.800781 " fill-opacity="1" fill-rule="nonzero"/><path fill="#81d9e3" d="M 255.804688 114.980469 C 255.804688 91.253906 236.527344 72.160156 212.984375 72.160156 C 201.492188 72.160156 191.113281 76.609375 183.511719 84.023438 C 175.914062 76.796875 165.347656 72.160156 154.039062 72.160156 C 146.070312 72.160156 138.652344 74.386719 132.351562 78.09375 L 206.683594 157.429688 C 208.722656 157.800781 210.945312 157.984375 213.171875 157.984375 C 236.527344 157.800781 255.804688 138.707031 255.804688 114.980469 Z M 255.804688 114.980469 " fill-opacity="1" fill-rule="nonzero"/><path fill="#9fa5aa" d="M 298.625 141.304688 C 298.625 173.742188 285.09375 203.03125 263.40625 223.976562 L 261.550781 221.9375 L 263.40625 220.269531 C 284.535156 199.691406 298.066406 171.148438 298.625 139.449219 C 298.625 140.003906 298.625 140.746094 298.625 141.304688 Z M 298.625 141.304688 " fill-opacity="0.5" fill-rule="nonzero"/><path fill="#9fa5aa" d="M 260.808594 226.570312 C 244.683594 241.214844 224.476562 253.078125 202.046875 256.785156 C 201.308594 256.96875 169.980469 257.339844 169.054688 257.339844 C 112.519531 249.925781 68.773438 199.691406 68.773438 141.304688 C 68.773438 140.746094 68.773438 140.003906 68.773438 139.449219 C 69.699219 201.917969 120.859375 252.523438 183.699219 252.523438 C 212.429688 252.523438 238.75 241.957031 258.957031 224.53125 Z M 260.808594 226.570312 " fill-opacity="0.5" fill-rule="nonzero"/><path fill="#ffffff" d="M 105.660156 60.667969 L 103.804688 62.523438 C 82.675781 82.914062 69.328125 111.460938 68.773438 143.15625 C 68.773438 142.601562 68.773438 141.859375 68.773438 141.304688 C 68.773438 108.863281 82.304688 79.578125 103.992188 58.628906 Z M 105.660156 60.667969 " fill-opacity="0.5" fill-rule="nonzero"/><path fill="#ffffff" d="M 298.625 141.304688 C 298.625 141.859375 298.625 142.601562 298.625 143.15625 C 297.695312 80.6875 246.535156 30.085938 183.699219 30.085938 C 154.964844 30.085938 128.644531 40.648438 108.441406 58.074219 L 106.585938 56.035156 C 124.382812 39.910156 147.367188 29.34375 172.761719 26.933594 C 173.6875 26.933594 174.613281 26.746094 175.542969 26.746094 C 176.46875 26.746094 177.394531 26.5625 178.320312 26.5625 C 179.992188 26.378906 181.84375 26.378906 183.699219 26.378906 C 185.738281 26.378906 187.589844 26.378906 189.628906 26.5625 C 190.554688 26.5625 191.484375 26.746094 192.59375 26.746094 C 192.59375 26.746094 192.78125 26.746094 192.964844 26.746094 C 251.910156 31.382812 298.625 81.058594 298.625 141.304688 Z M 298.625 141.304688 " fill-opacity="0.5" fill-rule="nonzero"/><path fill="#bddee0" d="M 254.136719 115.351562 C 254.136719 115.90625 254.136719 116.648438 254.136719 117.207031 C 253.210938 95.519531 235.230469 78.277344 213.355469 78.277344 C 203.902344 78.277344 195.191406 81.617188 188.332031 86.992188 C 187.777344 86.25 187.035156 85.507812 186.476562 84.765625 C 192.78125 79.207031 200.75 73.644531 209.648438 72.902344 C 210.203125 72.902344 210.761719 72.71875 211.316406 72.71875 C 212.058594 72.71875 212.800781 72.71875 213.355469 72.71875 C 213.914062 72.71875 214.839844 72.71875 215.394531 72.71875 C 236.898438 73.832031 254.136719 93.664062 254.136719 115.351562 Z M 254.136719 115.351562 " fill-opacity="0.5" fill-rule="nonzero"/><path fill="#bddee0" d="M 194.820312 115.351562 C 194.820312 115.90625 194.820312 116.648438 194.820312 117.207031 C 194.449219 107.195312 190.183594 97.925781 183.699219 91.070312 C 177.210938 97.925781 173.132812 107.195312 172.574219 117.207031 C 172.574219 116.648438 172.574219 115.90625 172.574219 115.351562 C 172.574219 104.601562 176.839844 94.777344 183.699219 87.363281 C 190.554688 94.777344 194.820312 104.601562 194.820312 115.351562 Z M 194.820312 115.351562 " fill-opacity="0.5" fill-rule="nonzero"/><path fill="#2d4356" d="M 228 196.914062 L 224.476562 193.207031 L 215.210938 193.207031 L 215.210938 183.195312 L 211.503906 179.304688 L 211.503906 193.207031 L 196.671875 193.207031 C 195.5625 193.207031 194.820312 193.945312 194.820312 195.058594 C 194.820312 196.171875 195.5625 196.914062 196.671875 196.914062 L 211.503906 196.914062 L 211.503906 211.742188 C 211.503906 212.855469 212.242188 213.59375 213.355469 213.59375 C 214.46875 213.59375 215.210938 212.855469 215.210938 211.742188 L 215.210938 196.914062 Z M 228 196.914062 " fill-opacity="1" fill-rule="nonzero"/><path fill="#0f423c" d="M 149.21875 157.613281 C 149.40625 157.613281 160.898438 157.246094 161.453125 157.246094 C 168.683594 155.945312 175.355469 150.757812 180.546875 146.121094 L 181.101562 146.679688 L 178.691406 144.082031 C 171.835938 149.273438 163.308594 152.425781 154.039062 152.425781 C 132.167969 152.425781 114.1875 135.1875 113.257812 113.5 C 113.257812 114.054688 113.257812 114.796875 113.257812 115.351562 C 113.257812 136.296875 129.015625 155.390625 149.21875 157.613281 Z M 149.21875 157.613281 " fill-opacity="0.3" fill-rule="nonzero"/><path fill="#bddee0" d="M 179.0625 86.992188 C 179.621094 86.25 180.359375 85.507812 180.917969 84.765625 C 174.613281 79.207031 166.644531 73.644531 157.746094 72.902344 C 157.191406 72.902344 150.332031 72.902344 149.777344 72.902344 C 144.03125 73.460938 138.652344 77.167969 133.648438 79.949219 L 136.058594 82.355469 C 141.433594 79.761719 147.550781 78.277344 153.855469 78.277344 C 163.492188 78.277344 172.207031 81.617188 179.0625 86.992188 Z M 179.0625 86.992188 " fill-opacity="0.5" fill-rule="nonzero"/><path fill="#0f423c" d="M 219.101562 157.246094 C 239.492188 154.835938 254.136719 136.296875 254.136719 115.351562 C 254.136719 114.796875 254.136719 114.054688 254.136719 113.5 C 253.210938 135.1875 235.230469 152.425781 213.355469 152.425781 C 210.203125 152.425781 207.054688 152.054688 204.085938 151.3125 L 199.269531 149.828125 L 204.085938 155.019531 C 204.457031 155.019531 209.09375 157.429688 209.277344 157.429688 C 209.835938 157.429688 218.917969 157.246094 219.101562 157.246094 Z M 219.101562 157.246094 " fill-opacity="0.3" fill-rule="nonzero"/><path fill="#2d4356" d="M 213.355469 70.863281 C 202.046875 70.863281 191.484375 75.128906 183.699219 82.171875 C 175.914062 75.128906 165.347656 70.863281 154.039062 70.863281 C 145.699219 70.863281 137.914062 73.089844 131.238281 77.167969 L 133.835938 79.949219 C 139.765625 76.425781 146.808594 74.570312 154.039062 74.570312 C 164.417969 74.570312 173.875 78.464844 181.101562 84.765625 C 173.503906 92.738281 168.867188 103.488281 168.867188 115.351562 C 168.867188 116.09375 168.867188 116.648438 168.867188 117.390625 L 173.132812 121.839844 C 172.761719 119.800781 172.574219 117.578125 172.574219 115.351562 C 172.574219 104.601562 176.839844 94.777344 183.699219 87.363281 C 190.554688 94.589844 194.820312 104.414062 194.820312 115.351562 C 194.820312 123.695312 192.410156 131.292969 187.960938 137.78125 L 190.554688 140.5625 C 195.5625 133.519531 198.527344 124.804688 198.527344 115.351562 C 198.527344 103.488281 193.894531 92.738281 186.292969 84.765625 C 193.523438 78.464844 202.976562 74.570312 213.355469 74.570312 C 235.785156 74.570312 254.136719 92.921875 254.136719 115.351562 C 254.136719 137.78125 235.785156 156.132812 213.355469 156.132812 C 210.203125 156.132812 207.054688 155.761719 204.273438 155.019531 L 208.535156 159.46875 C 209.648438 159.652344 210.574219 159.652344 211.6875 159.652344 L 211.6875 162.804688 L 215.394531 166.699219 L 215.394531 159.839844 C 239.121094 158.914062 258.027344 139.265625 258.027344 115.351562 C 257.84375 90.699219 238.007812 70.863281 213.355469 70.863281 Z M 213.355469 70.863281 " fill-opacity="1" fill-rule="nonzero"/><path fill="#2d4356" d="M 183.140625 148.902344 L 180.546875 146.121094 C 173.503906 152.425781 164.234375 156.132812 154.039062 156.132812 C 131.609375 156.132812 113.257812 137.78125 113.257812 115.351562 C 113.257812 104.230469 117.707031 94.035156 125.121094 86.621094 L 122.527344 84.023438 C 114.558594 91.996094 109.550781 103.117188 109.550781 115.351562 C 109.550781 139.265625 128.460938 158.914062 152.1875 159.839844 L 152.1875 205.625 L 140.691406 188.386719 C 140.136719 187.457031 139.023438 187.273438 138.097656 187.828125 C 137.171875 188.386719 136.984375 189.496094 137.542969 190.425781 L 152.371094 212.855469 C 152.742188 213.410156 153.296875 213.59375 153.855469 213.59375 C 154.410156 213.59375 154.964844 213.222656 155.335938 212.855469 L 170.167969 190.425781 C 170.722656 189.496094 170.535156 188.386719 169.609375 187.828125 C 168.683594 187.273438 167.570312 187.457031 167.015625 188.386719 L 155.894531 205.625 L 155.894531 159.839844 C 166.273438 159.285156 175.914062 155.390625 183.140625 148.902344 Z M 183.140625 148.902344 " fill-opacity="1" fill-rule="nonzero"/><g clip-path="url(#a900e621a1)"><path fill="#2d4356" d="M 183.699219 22.667969 C 118.265625 22.667969 65.0625 75.871094 65.0625 141.304688 C 65.0625 206.738281 118.265625 259.9375 183.699219 259.9375 C 249.132812 259.9375 302.332031 206.738281 302.332031 141.304688 C 302.332031 75.871094 249.132812 22.667969 183.699219 22.667969 Z M 68.773438 141.304688 C 68.773438 108.863281 82.304688 79.578125 103.992188 58.628906 L 260.808594 226.386719 C 240.417969 244.921875 213.355469 256.230469 183.699219 256.230469 C 120.304688 256.230469 68.773438 204.699219 68.773438 141.304688 Z M 263.40625 223.976562 L 106.585938 56.21875 C 126.976562 37.683594 154.039062 26.378906 183.699219 26.378906 C 247.09375 26.378906 298.625 77.910156 298.625 141.304688 C 298.625 173.742188 285.09375 203.03125 263.40625 223.976562 Z M 263.40625 223.976562 " fill-opacity="1" fill-rule="nonzero"/></g></svg>